<?xml version="1.0" standalone="no"?>
<!DOCTYPE svg PUBLIC "-//W3C//DTD SVG 20010904//EN"
 "http://www.w3.org/TR/2001/REC-SVG-20010904/DTD/svg10.dtd">
<svg version="1.0" xmlns="http://www.w3.org/2000/svg"
 width="700.000000pt" height="700.000000pt" viewBox="0 0 700.000000 700.000000"
 preserveAspectRatio="xMidYMid meet">
<metadata>
Created by potrace 1.14, written by Peter Selinger 2001-2017
</metadata>
<g transform="translate(0.000000,700.000000) scale(0.100000,-0.100000)"
fill="#000000" stroke="none">
<path d="M1817 6974 c-1 -1 -44 -4 -95 -8 -78 -5 -156 -17 -257 -40 -294 -64
-622 -235 -843 -441 -192 -178 -316 -344 -427 -570 -98 -202 -158 -400 -183
-610 -4 -33 -7 -854 -7 -1825 l0 -1765 22 -110 c29 -149 29 -148 59 -245 32
-103 105 -277 139 -331 14 -21 25 -41 25 -44 0 -3 21 -37 46 -77 150 -234 361
-444 594 -589 193 -120 463 -225 654 -253 21 -4 41 -8 45 -10 8 -5 143 -17
236 -22 39 -2 759 -4 1600 -5 1380 0 1819 3 1895 15 14 2 48 7 75 10 78 11
258 55 332 83 38 14 77 28 88 31 44 13 239 114 318 166 340 221 597 538 741
911 34 90 80 249 90 315 3 19 11 67 18 105 19 102 19 3590 0 3685 -6 36 -14
76 -16 90 -16 102 -76 295 -120 393 -15 31 -26 58 -26 60 0 11 -97 179 -143
247 -226 338 -566 600 -942 727 -164 56 -249 75 -435 99 -43 6 -3476 13 -3483
8z"/>
</g>
</svg>
